# xmcd CD database file
#
# Track frame offsets:
#	225
#	11035
#	20680
#	41997
#	61828
#	78198
#	96075
#	109984
#	128291
#	144579
#	160353
#	174524
#	192073
#	203896
#	224350
#	240498
#	260338
#	282139
#	298387
#	320497
#	337949
#	350863
#	364888
#	380065
#
# Disc length: 5352 seconds
#
# Revision: 0
# Processed by: cddbd v1.5.2PL0 Copyright (c) Steve Scherf et al.
# Submitted via: CDex 1.95
#
DISCID=7414e518
DTITLE=Willie Nelson - The Essential Willie Nelson
DYEAR=2003
DGENRE=Country
TTITLE0=Willie Nelson - Blue Eyes Crying In The Rain
TTITLE1=Willie Nelson - If You've Got The Money I've Got The Time
TTITLE2=Willie Nelson - Uncloudy Day
TTITLE3=Willie Nelson - Georgia On My Mind
TTITLE4=Willie Nelson - Blue Skies
TTITLE5=Willie Nelson - All Of Me
TTITLE6=Willie Nelson - Heartbreak Hotel
TTITLE7=Willie Nelson - Help Me Make It Through The Night
TTITLE8=Willie Nelson - Whiskey River
TTITLE9=Willie Nelson - Stay A Little Longer
TTITLE10=Willie Nelson - My Heroes Have Always Been Cowboys
TTITLE11=Willie Nelson - Faded Love
TTITLE12=Willie Nelson - On The Road Again
TTITLE13=Willie Nelson - Angel Flying Too Close To The Ground
TTITLE14=Willie Nelson - Always On My Mind
TTITLE15=Willie Nelson - Last Thing I Needed First Thing This Morning
TTITLE16=Willie Nelson - Pancho And Lefty
TTITLE17=Willie Nelson - To All The Girls I've Loved Before
TTITLE18=Willie Nelson - City Of New Orleans
TTITLE19=Willie Nelson - Seven Spanish Angels
TTITLE20=Willie Nelson - Forgiving You Was Easy
TTITLE21=Willie Nelson - Highwayman
TTITLE22=Willie Nelson - Nothing I Can Do About It Now
TTITLE23=Willie Nelson - Graceland
EXTD=YEAR: 2003
EXTT0=
EXTT1=
EXTT2=
EXTT3=
EXTT4=
EXTT5=
EXTT6=
EXTT7=
EXTT8=
EXTT9=
EXTT10=
EXTT11=
EXTT12=
EXTT13=
EXTT14=
EXTT15=
EXTT16=
EXTT17=
EXTT18=
EXTT19=
EXTT20=
EXTT21=
EXTT22=
EXTT23=
PLAYORDER=
